<?xml version="1.0" encoding="UTF-8"?>
<svg version="1.1" xmlns="http://www.w3.org/2000/svg" width="500" height="500">
<path d="M0 0 C0.99 0.33 1.98 0.66 3 1 C3.7734375 2.86328125 3.7734375 2.86328125 4.375 5.3125 C5.42807625 9.18651107 6.6932143 12.7643599 8.3125 16.4375 C10.88835238 22.43235163 12.82988672 28.54997614 14.6809082 34.79858398 C16.02211162 39.2335658 17.57948946 43.48118567 19.39453125 47.74609375 C22.15745578 54.24727477 24.43593494 60.87008119 26.6875 67.5625 C30.04575808 77.45089181 33.53063003 87.27954953 37.1875 97.0625 C40.3162105 105.43574825 43.38490794 113.82089973 46.30615234 122.26879883 C48.03074412 127.25044592 49.79270094 132.21696569 51.58203125 137.17578125 C52.03777206 138.44083239 52.49350119 139.70588775 52.94921875 140.97094727 C53.83717068 143.43516418 54.72980725 145.89751732 55.625 148.35913086 C56.03363281 149.49358643 56.44226563 150.62804199 56.86328125 151.796875 C57.22719971 152.80073242 57.59111816 153.80458984 57.96606445 154.83886719 C59.17273597 158.52811934 60.09472584 162.22585618 61 166 C62.52584717 166.03758423 62.52584717 166.03758423 64.08251953 166.07592773 C67.92570563 166.17146168 71.76877077 166.27130026 75.61181641 166.37231445 C77.26217787 166.4151206 78.91256842 166.45682248 80.56298828 166.49731445 C89.58302461 166.7193883 98.55273035 167.06583226 107.55078125 167.76586914 C114.00485358 168.20396762 120.47176604 168.33387357 126.9375 168.5 C136.07819312 168.73547711 145.18209754 169.11692503 154.30541992 169.76367188 C161.65213296 170.23361295 169.01131664 170.39468759 176.36914062 170.60546875 C181.8823279 170.77692444 187.36186084 170.99617047 192.85546875 171.5 C201.16352747 172.24716491 209.50100818 172.35531748 217.83642578 172.55224609 C219.96659357 172.60380912 222.0965549 172.66099865 224.2265625 172.71875 C225.48033691 172.74904297 226.73411133 172.77933594 228.02587891 172.81054688 C231 173 231 173 233 174 C231.46679561 178.21146015 228.36018841 180.31700044 224.875 182.875 C224.29258545 183.31118652 223.7101709 183.74737305 223.11010742 184.19677734 C221.94693915 185.06717975 220.7815316 185.93459869 219.61376953 186.79882812 C216.87420513 188.83795927 214.18740676 190.94680675 211.48828125 193.0390625 C210 194 210 194 208 194 C208 194.66 208 195.32 208 196 C206.35 196.66 204.7 197.32 203 198 C203 198.66 203 199.32 203 200 C201.30189246 201.37898043 199.53964541 202.67959478 197.75 203.9375 C196.77546875 204.62714844 195.8009375 205.31679687 194.796875 206.02734375 C193.87390625 206.67832031 192.9509375 207.32929688 192 208 C191.26265625 208.57878906 190.5253125 209.15757812 189.765625 209.75390625 C188 211 188 211 186 211 C186 211.66 186 212.32 186 213 C183.66112022 214.89236637 181.30969106 216.67562171 178.875 218.4375 C177.39613165 219.5259813 175.91828536 220.61585243 174.44140625 221.70703125 C173.32016357 222.53388428 173.32016357 222.53388428 172.17626953 223.37744141 C169.010538 225.73771197 165.90727664 228.17281843 162.8125 230.625 C157.19280791 235.07008103 151.52950806 239.45345347 145.83984375 243.80859375 C143.95076819 245.26632606 142.08804666 246.75888009 140.25390625 248.28515625 C138 250 138 250 136 250 C136 250.66 136 251.32 136 252 C134.2265625 253.453125 134.2265625 253.453125 131.625 255.25 C125.41904332 259.64252778 119.43727176 264.29018947 113.45947266 268.98730469 C109.04831459 272.44305064 104.58574656 275.77905896 100 279 C102.3654739 290.82736952 106.13114857 302.32609194 109.78125 313.80859375 C112.98458717 323.92044643 116.12121288 334.05238112 119.25 344.1875 C123.99337825 359.54658991 123.99337825 359.54658991 128.78515625 374.890625 C128.99969955 375.57381805 129.21424286 376.25701111 129.43528748 376.96090698 C129.855775 378.29968867 130.27628139 379.63846443 130.69680786 380.97723389 C130.89998627 381.6241217 131.10316467 382.27100952 131.3125 382.9375 C131.61569656 383.90275604 131.61569656 383.90275604 131.92501831 384.88751221 C135.16304489 395.20738682 138.26258115 405.56366465 141.30273438 415.94335938 C143.02993221 421.81583203 144.82599269 427.64759522 146.8125 433.4375 C148.90613255 439.54864367 150.55813497 445.70502827 152 452 C151.34 452.33 150.68 452.66 150 453 C131.99398663 441.0597587 131.99398663 441.0597587 124.6171875 435.83984375 C120.40070857 432.87572199 116.14400612 429.97016853 111.89331055 427.05541992 C108.13953088 424.47894791 104.4032305 421.881235 100.6875 419.25 C96.26526423 416.12354712 91.68705381 413.28426941 87.0546875 410.48046875 C86.37664062 409.99191406 85.69859375 409.50335938 85 409 C85 408.34 85 407.68 85 407 C83.90933228 406.60300903 83.90933228 406.60300903 82.79663086 406.19799805 C79.98132322 404.99199939 77.75001997 403.59875618 75.25390625 401.83203125 C74.34527832 401.19362305 73.43665039 400.55521484 72.50048828 399.89746094 C71.53095215 399.20942383 70.56141602 398.52138672 69.5625 397.8125 C67.48894882 396.35451887 65.41471289 394.89751116 63.33984375 393.44140625 C62.28522949 392.70035645 61.23061523 391.95930664 60.14404297 391.19580078 C55.33413087 387.83655638 50.48072099 384.5425162 45.625 381.25 C39.08365202 376.80674381 32.57709478 372.3219152 26.125 367.75 C25.11058838 367.03577881 25.11058838 367.03577881 24.07568359 366.30712891 C20.54703302 363.82027852 17.04620962 361.30233404 13.5703125 358.7421875 C12.13041029 357.70284515 10.69031291 356.66377313 9.25 355.625 C8.59402832 355.12967773 7.93805664 354.63435547 7.26220703 354.12402344 C5.20931548 352.59683386 5.20931548 352.59683386 2 351 C-2.37564912 351.74152222 -5.79040499 354.82949046 -9.3125 357.4375 C-10.56419909 358.34760026 -11.81683893 359.25640777 -13.0703125 360.1640625 C-14.04145996 360.86837402 -14.04145996 360.86837402 -15.03222656 361.58691406 C-18.21881448 363.87524792 -21.45071215 366.09598643 -24.6875 368.3125 C-25.35168945 368.76786133 -26.01587891 369.22322266 -26.70019531 369.69238281 C-30.2740343 372.13996214 -33.85193759 374.58158028 -37.4296875 377.0234375 C-38.97405508 378.07798333 -40.51832418 379.1326734 -42.0625 380.1875 C-42.83770996 380.71698242 -43.61291992 381.24646484 -44.41162109 381.79199219 C-52.05847305 387.02380482 -59.66247705 392.31676627 -67.26000977 397.61987305 C-69.83715183 399.41740202 -72.41783774 401.20969364 -75 403 C-75.95398682 403.66878174 -75.95398682 403.66878174 -76.92724609 404.35107422 C-80.76998849 407 -80.76998849 407 -83 407 C-83 407.66 -83 408.32 -83 409 C-85.3359375 410.7265625 -85.3359375 410.7265625 -88.375 412.625 C-89.87160156 413.57246094 -89.87160156 413.57246094 -91.3984375 414.5390625 C-94 416 -94 416 -96 416 C-96 416.66 -96 417.32 -96 418 C-97.6262207 419.3059082 -97.6262207 419.3059082 -99.92578125 420.80078125 C-100.77615967 421.35950928 -101.62653809 421.9182373 -102.50268555 422.49389648 C-103.42992432 423.09403564 -104.35716309 423.6941748 -105.3125 424.3125 C-107.24286006 425.57970523 -109.17253293 426.84795782 -111.1015625 428.1171875 C-112.08543945 428.76268555 -113.06931641 429.40818359 -114.08300781 430.07324219 C-118.48405296 432.98025996 -122.83867269 435.95313975 -127.1875 438.9375 C-127.97358643 439.47503906 -128.75967285 440.01257813 -129.56958008 440.56640625 C-132.83504701 442.80406894 -136.09083967 445.05040337 -139.30078125 447.3671875 C-140.63689453 448.33011719 -140.63689453 448.33011719 -142 449.3125 C-142.721875 449.84488281 -143.44375 450.37726563 -144.1875 450.92578125 C-146 452 -146 452 -149 452 C-149.23079368 447.34915769 -148.50821506 443.9312091 -146.9375 439.5625 C-146.46973724 438.22367253 -146.00509149 436.88375343 -145.54296875 435.54296875 C-145.16664307 434.45121338 -145.16664307 434.45121338 -144.78271484 433.33740234 C-143.34545383 429.04534465 -142.05460111 424.70884677 -140.75 420.375 C-138.07778655 411.53024606 -135.36761384 402.69818796 -132.625 393.875 C-132.2441626 392.64942383 -131.8633252 391.42384766 -131.47094727 390.16113281 C-130.31441876 386.44061389 -129.15727944 382.72028541 -128 379 C-126.56171854 374.37524251 -125.12425492 369.75023195 -123.6875 365.125 C-123.3263208 363.96299072 -122.9651416 362.80098145 -122.59301758 361.60375977 C-120.37299311 354.45247542 -118.1690881 347.29647283 -115.9765625 340.13671875 C-115.44704496 338.40933525 -114.91750388 336.68195897 -114.38793945 334.95458984 C-113.36841425 331.62883075 -112.35172323 328.3022239 -111.33666992 324.97509766 C-108.67539847 316.27853786 -105.92079813 307.6224375 -103.00239563 299.00837708 C-99.41436956 289.20918614 -99.41436956 289.20918614 -98 279 C-99.32514669 277.59805693 -99.32514669 277.59805693 -101.1484375 276.36328125 C-102.15463135 275.62694458 -102.15463135 275.62694458 -103.18115234 274.87573242 C-103.90512207 274.35986572 -104.6290918 273.84399902 -105.375 273.3125 C-106.85511977 272.23307653 -108.33428846 271.15234771 -109.8125 270.0703125 C-110.534375 269.54469727 -111.25625 269.01908203 -112 268.47753906 C-114.51740542 266.61775664 -116.95178952 264.66800857 -119.375 262.6875 C-123.47517353 259.34739265 -127.75449103 256.36241363 -132.1640625 253.4453125 C-133.07285156 252.72988281 -133.07285156 252.72988281 -134 252 C-134 251.34 -134 250.68 -134 250 C-134.680625 249.79375 -135.36125 249.5875 -136.0625 249.375 C-138.66295804 248.15776432 -140.08869694 247.16926658 -142.1796875 245.30078125 C-146.00977509 241.95465785 -150.00541264 238.87664641 -154.0625 235.8125 C-160.181151 231.16623732 -166.25886533 226.47566873 -172.26977539 221.69067383 C-175.08492723 219.46036446 -177.93899012 217.34387181 -180.8984375 215.3125 C-181.92195313 214.549375 -182.94546875 213.78625 -184 213 C-184 212.34 -184 211.68 -184 211 C-185.07701172 210.63068359 -185.07701172 210.63068359 -186.17578125 210.25390625 C-189.31794692 208.85883684 -191.55095942 207.13528193 -194.1875 204.9375 C-197.41282987 202.19079836 -197.41282987 202.19079836 -201 200 C-201 199.34 -201 198.68 -201 198 C-202.65 197.34 -204.3 196.68 -206 196 C-206 195.34 -206 194.68 -206 194 C-206.70253906 193.77054688 -207.40507812 193.54109375 -208.12890625 193.3046875 C-211.55446546 191.74803883 -214.1387986 189.58327037 -216.9375 187.125 C-219.96977037 184.48790293 -222.97903307 181.95817336 -226.37890625 179.8046875 C-227.24386719 179.20914063 -228.10882813 178.61359375 -229 178 C-229 177.34 -229 176.68 -229 176 C-229.66 176 -230.32 176 -231 176 C-230.67 175.01 -230.34 174.02 -230 173 C-228.55717651 172.96241577 -228.55717651 172.96241577 -227.08520508 172.92407227 C-223.45262499 172.82856924 -219.82017417 172.72872201 -216.18774414 172.62768555 C-214.62755394 172.58486812 -213.06733265 172.54316653 -211.50708008 172.50268555 C-203.04279755 172.28230403 -194.63280515 171.94281786 -186.19262695 171.23413086 C-180.19919934 170.79460367 -174.19355065 170.66895737 -168.1875 170.5 C-156.61745355 170.15729475 -156.61745355 170.15729475 -145.0625 169.5 C-135.86652551 168.85253865 -126.65152484 168.64396174 -117.43774414 168.39257812 C-111.31960894 168.21574668 -105.22819948 167.972946 -99.125 167.50390625 C-90.9644988 166.8823844 -82.80399192 166.65789738 -74.625 166.4375 C-73.09895054 166.3941537 -71.57290878 166.35053531 -70.046875 166.30664062 C-66.36466642 166.20130413 -62.68236872 166.09960138 -59 166 C-58.83636963 165.4332959 -58.67273926 164.8665918 -58.50415039 164.28271484 C-56.36052342 156.98783216 -53.9291385 149.80746738 -51.4375 142.625 C-51.22068573 141.99850555 -51.00387146 141.37201111 -50.78048706 140.72653198 C-43.93067707 120.93622001 -36.84059288 101.23450653 -29.60641479 81.58181763 C-25.8747888 71.44151896 -22.25433794 61.26809149 -18.71582031 51.05908203 C-16.3182913 44.16250641 -13.85410591 37.29006145 -11.3125 30.4453125 C-10.70828216 28.81772733 -10.10411621 27.19012289 -9.5 25.5625 C-9.20270996 24.76207275 -8.90541992 23.96164551 -8.59912109 23.13696289 C-6.22672368 16.70905709 -4.04501431 10.2325279 -1.9453125 3.7109375 C-1 1 -1 1 0 0 Z " fill="#A57688" transform="translate(249,15)"/>
<path d="M0 0 C4.41665225 -0.02945039 8.83327867 -0.04694816 13.25 -0.0625 C14.48492187 -0.07087891 15.71984375 -0.07925781 16.9921875 -0.08789062 C23.64958479 -0.10541009 30.17676954 0.12281323 36.80273438 0.74829102 C40.5670892 1.04464485 44.32808874 1.17850932 48.1015625 1.28125 C48.79769653 1.30026871 49.49383057 1.31928741 50.21105957 1.33888245 C53.08608296 1.41431561 55.96121593 1.48431775 58.83642578 1.55224609 C60.96659357 1.60380912 63.0965549 1.66099865 65.2265625 1.71875 C67.10722412 1.76418945 67.10722412 1.76418945 69.02587891 1.81054688 C72 2 72 2 74 3 C72.45028979 7.33513706 69.10992099 9.58264957 65.5625 12.25 C64.68368164 12.93835938 64.68368164 12.93835938 63.78710938 13.640625 C59.38292876 17 59.38292876 17 56 17 C56.495 15.515 56.495 15.515 57 14 C57.99 14 58.98 14 60 14 C60.33 13.01 60.66 12.02 61 11 C61.99 11 62.98 11 64 11 C64 10.01 64 9.02 64 8 C63.34 7.67 62.68 7.34 62 7 C62.33 6.01 62.66 5.02 63 4 C61.97640381 4.00523682 60.95280762 4.01047363 59.89819336 4.01586914 C56.07577398 4.03406262 52.25335838 4.04548416 48.4309082 4.05493164 C46.78116206 4.05993919 45.1314203 4.06674716 43.48168945 4.07543945 C41.10106315 4.08766254 38.72049587 4.09326422 36.33984375 4.09765625 C35.61039047 4.10281754 34.88093719 4.10797882 34.12937927 4.11329651 C29.66149123 4.11377846 25.42446856 3.70351798 21 3 C19.35514934 2.93943849 17.70827043 2.91218045 16.0625 2.9375 C14.90427734 2.95103516 14.90427734 2.95103516 13.72265625 2.96484375 C12.86994141 2.98224609 12.86994141 2.98224609 12 3 C12 2.67 12 2.34 12 2 C8.04 1.67 4.08 1.34 0 1 C0 0.67 0 0.34 0 0 Z " fill="#624C55" transform="translate(408,186)"/>
<path d="M0 0 C1.37830469 3.82862413 0.64545242 7.05556855 0 11 C0 11.99 0 12.98 0 14 C0 14.66 0 15.32 0 16 C3.81347115 17.27115705 5.35973036 16.54905091 9 15 C9.66 14.01 10.32 13.02 11 12 C13.625 11.8125 13.625 11.8125 16 12 C12.55772495 15.63915794 9.07567192 18.46601205 4.875 21.1875 C3.84117188 21.86167969 2.80734375 22.53585937 1.7421875 23.23046875 C0.38480469 24.10638672 0.38480469 24.10638672 -1 25 C-1.99 25.66 -2.98 26.32 -4 27 C-4.99 27 -5.98 27 -7 27 C-7.28904229 22.07106825 -6.27423985 18.08636925 -4.625 13.5 C-4.40328125 12.86191406 -4.1815625 12.22382813 -3.953125 11.56640625 C-3.30742583 9.70907157 -2.65382636 7.85448932 -2 6 C-1.32928339 4.00135454 -0.66110341 2.00184583 0 0 Z " fill="#906B78" transform="translate(107,440)"/>
<path d="M0 0 C5.70688869 0.11978419 11.41365578 0.24410066 17.12036133 0.37231445 C19.05490554 0.4151759 20.98947588 0.45687626 22.92407227 0.49731445 C34.30928502 0.73616507 45.64574364 1.09992034 57 2 C57 2.33 57 2.66 57 3 C33.86377246 4.29678144 33.86377246 4.29678144 24.859375 3.2578125 C18.92763814 2.72298377 12.94984668 2.92684615 7 3 C7 2.34 7 1.68 7 1 C4.69 1 2.38 1 0 1 C0 0.67 0 0.34 0 0 Z " fill="#513D45" transform="translate(350,183)"/>
<path d="M0 0 C0.33 0.99 0.66 1.98 1 3 C-5.94388888 8.08250422 -12.93089358 13.09302808 -20 18 C-20.66 17.67 -21.32 17.34 -22 17 C-22 15 -22 15 -20 13 C-19.01 12.34 -18.02 11.68 -17 11 C-15.84332778 9.84332778 -14.70564292 8.66550331 -13.625 7.4375 C-12 6 -12 6 -10.1640625 5.5703125 C-7.66287065 4.91115364 -5.913876 3.8440194 -3.75 2.4375 C-3.04359375 1.98246094 -2.3371875 1.52742188 -1.609375 1.05859375 C-1.07828125 0.70925781 -0.5471875 0.35992187 0 0 Z " fill="#6A505A" transform="translate(232,374)"/>
<path d="M0 0 C8.25 0 16.5 0 25 0 C25 0.33 25 0.66 25 1 C20.05 1.66 15.1 2.32 10 3 C9.67 4.32 9.34 5.64 9 7 C7.25 7.6875 7.25 7.6875 5 8 C2.75 6.6875 2.75 6.6875 1 5 C1 4.34 1 3.68 1 3 C0.34 3 -0.32 3 -1 3 C-0.67 2.01 -0.34 1.02 0 0 Z " fill="#8D6B76" transform="translate(19,188)"/>
<path d="M0 0 C1.093125 0.185625 2.18625 0.37125 3.3125 0.5625 C6.93624133 1.2578068 6.93624133 1.2578068 10 0 C10 2.31 10 4.62 10 7 C11.11955078 6.86078125 11.11955078 6.86078125 12.26171875 6.71875 C15 7 15 7 17.01953125 8.96875 C17.61121094 9.8040625 18.20289063 10.639375 18.8125 11.5 C19.41707031 12.3353125 20.02164063 13.170625 20.64453125 14.03125 C21.31548828 15.00578125 21.31548828 15.00578125 22 16 C17.95525476 16 16.85816539 14.47820624 13.8125 11.875 C9.7584471 8.45708838 5.66278402 5.19559568 1.36328125 2.09375 C0.91339844 1.7328125 0.46351562 1.371875 0 1 C0 0.67 0 0.34 0 0 Z " fill="#5A444D" transform="translate(125,273)"/>
<path d="M0 0 C3.3 0 6.6 0 10 0 C10.08759561 4.20458942 9.83871971 6.09006824 6.9296875 9.24609375 C4.66776022 11.23502981 2.37731753 13.15097526 0 15 C-0.66 14.67 -1.32 14.34 -2 14 C-1.67 13.01 -1.34 12.02 -1 11 C-0.01 11 0.98 11 2 11 C2.33 10.01 2.66 9.02 3 8 C3.99 8 4.98 8 6 8 C6 7.01 6 6.02 6 5 C5.34 4.67 4.68 4.34 4 4 C4.33 3.01 4.66 2.02 5 1 C3.35 1 1.7 1 0 1 C0 0.67 0 0.34 0 0 Z " fill="#936F7C" transform="translate(466,189)"/>
<path d="M0 0 C0.99 0.33 1.98 0.66 3 1 C3 1.99 3 2.98 3 4 C4.65 4 6.3 4 8 4 C8 4.66 8 5.32 8 6 C9.65 6.33 11.3 6.66 13 7 C12.67 7.99 12.34 8.98 12 10 C13.37168238 12.19038423 13.37168238 12.19038423 15 14 C11.69291925 12.45463516 8.75273101 10.57205999 5.75 8.5 C4.85796875 7.8915625 3.9659375 7.283125 3.046875 6.65625 C2.37140625 6.1096875 1.6959375 5.563125 1 5 C1 4.34 1 3.68 1 3 C0.01 2.67 -0.98 2.34 -2 2 C-1.34 1.34 -0.68 0.68 0 0 Z " fill="#6C505A" transform="translate(47,210)"/>
<path d="M0 0 C2.375 -0.1875 2.375 -0.1875 5 0 C5.66 0.99 6.32 1.98 7 3 C10.06556598 3.73343428 10.06556598 3.73343428 13 4 C13 5.32 13 6.64 13 8 C14.65 8 16.3 8 18 8 C18.99 9.98 19.98 11.96 21 14 C16.33025719 12.43452432 12.74407379 9.87575931 8.8125 7 C8.18408203 6.54882812 7.55566406 6.09765625 6.90820312 5.6328125 C4.46026976 3.86296977 2.13935669 2.13935669 0 0 Z " fill="#6C535D" transform="translate(304,402)"/>
<path d="M0 0 C3.45831586 -0.02894547 6.91660072 -0.04678 10.375 -0.0625 C11.35984375 -0.07087891 12.3446875 -0.07925781 13.359375 -0.08789062 C14.77089844 -0.09272461 14.77089844 -0.09272461 16.2109375 -0.09765625 C17.51490479 -0.10551147 17.51490479 -0.10551147 18.84521484 -0.11352539 C21 0 21 0 23 1 C21.54744301 4.82946843 19.57104439 6.12050295 16 8 C15.67 6.68 15.34 5.36 15 4 C15.66 4 16.32 4 17 4 C17 3.01 17 2.02 17 1 C11.39 1 5.78 1 0 1 C0 0.67 0 0.34 0 0 Z " fill="#413136" transform="translate(459,188)"/>
<path d="M0 0 C2.97 0 5.94 0 9 0 C10.52448631 2.9826906 11.93940067 5.818202 13 9 C7.97290493 7.42903279 3.97133531 4.38006951 0 1 C0 0.67 0 0.34 0 0 Z M10 0 C12 1 12 1 12 1 Z " fill="#6E515B" transform="translate(280,385)"/>
<path d="M0 0 C1.30660357 4.29727397 0.6596762 7.60215865 0 12 C-0.66 12 -1.32 12 -2 12 C-2.33 14.31 -2.66 16.62 -3 19 C-3.99 19.33 -4.98 19.66 -6 20 C-4.63125844 13.04223041 -2.5466871 6.61396893 0 0 Z " fill="#4B373F" transform="translate(218,100)"/>
<path d="M0 0 C0.33 0 0.66 0 1 0 C1 2.64 1 5.28 1 8 C0.34 8 -0.32 8 -1 8 C-0.608125 8.556875 -0.21625 9.11375 0.1875 9.6875 C1 12 1 12 -0.25 14.75 C-0.8275 15.4925 -1.405 16.235 -2 17 C-2.66 17 -3.32 17 -4 17 C-3.35729017 11.0870696 -1.80996216 5.65755469 0 0 Z " fill="#725661" transform="translate(114,417)"/>
<path d="M0 0 C2.64 0 5.28 0 8 0 C4.50640535 3.59634744 0.88901869 6.83451967 -3 10 C-3.66 9.67 -4.32 9.34 -5 9 C-5 7.35 -5 5.7 -5 4 C-2.03 4.495 -2.03 4.495 1 5 C0.67 3.35 0.34 1.7 0 0 Z " fill="#6D525C" transform="translate(402,246)"/>
<path d="M0 0 C2.00406482 3.00609722 3.03076258 5.59242695 4.1875 9 C4.55230469 10.051875 4.91710937 11.10375 5.29296875 12.1875 C6 15 6 15 5 18 C4.01 15.69 3.02 13.38 2 11 C1.01 11 0.02 11 -1 11 C-0.67 7.37 -0.34 3.74 0 0 Z " fill="#594148" transform="translate(364,349)"/>
<path d="M0 0 C2.45453691 3.68180536 3.72299097 7.41018617 5.1875 11.5625 C5.47302734 12.34302734 5.75855469 13.12355469 6.05273438 13.92773438 C6.76316564 15.93111596 7.38825059 17.9643151 8 20 C7.67 20.66 7.34 21.32 7 22 C6.34 21.67 5.68 21.34 5 21 C4.50390625 19.34375 4.50390625 19.34375 4 17 C2.96041481 13.6933676 1.90298162 10.39288247 0.83984375 7.09375 C0 4 0 4 0 0 Z " fill="#513A43" transform="translate(288,120)"/>
<path d="M0 0 C1.32 0.66 2.64 1.32 4 2 C-1.445 5.96 -1.445 5.96 -7 10 C-7.33 9.01 -7.66 8.02 -8 7 C-6.875 4.875 -6.875 4.875 -5 3 C-2.3125 2.25 -2.3125 2.25 0 2 C0 1.34 0 0.68 0 0 Z " fill="#6C515A" transform="translate(364,278)"/>
<path d="M0 0 C8.25 0 16.5 0 25 0 C25 0.33 25 0.66 25 1 C17.41 1.33 9.82 1.66 2 2 C2.33 2.99 2.66 3.98 3 5 C2.34 5 1.68 5 1 5 C1 4.34 1 3.68 1 3 C0.34 3 -0.32 3 -1 3 C-0.67 2.01 -0.34 1.02 0 0 Z " fill="#2A1C20" transform="translate(19,188)"/>
<path d="M0 0 C2.5966562 2.5966562 3.10687691 4.93815375 4.1875 8.4375 C4.55230469 9.59121094 4.91710937 10.74492187 5.29296875 11.93359375 C6 15 6 15 5 18 C5 17.34 5 16.68 5 16 C4.34 16 3.68 16 3 16 C0.96780512 12.59648662 0.63108961 9.6767073 0.375 5.75 C0.30023438 4.67234375 0.22546875 3.5946875 0.1484375 2.484375 C0.09945313 1.66453125 0.05046875 0.8446875 0 0 Z " fill="#5B444C" transform="translate(355,320)"/>
<path d="M0 0 C2.625 -0.1875 2.625 -0.1875 5 0 C1.56638098 3.63559661 -1.7973607 6.36113346 -6 9 C-6.66 8.67 -7.32 8.34 -8 8 C-8 7.01 -8 6.02 -8 5 C-7.05125 4.731875 -6.1025 4.46375 -5.125 4.1875 C-1.74732727 3.25013412 -1.74732727 3.25013412 0 0 Z " fill="#59434B" transform="translate(118,452)"/>
<path d="M0 0 C0.33 0.99 0.66 1.98 1 3 C-4.445 6.96 -4.445 6.96 -10 11 C-10.33 10.01 -10.66 9.02 -11 8 C-10.01 8 -9.02 8 -8 8 C-7.7525 7.4225 -7.505 6.845 -7.25 6.25 C-5.58207452 3.24773413 -3.67725381 0 0 0 Z " fill="#6F525C" transform="translate(425,232)"/>
<path d="M0 0 C2.1755306 2.1755306 2.71879553 3.55973892 3.6875 6.4375 C3.95949219 7.21996094 4.23148437 8.00242187 4.51171875 8.80859375 C5 11 5 11 4 14 C2.68 13.34 1.36 12.68 0 12 C0 8.04 0 4.08 0 0 Z " fill="#5A424C" transform="translate(260,42)"/>
<path d="M0 0 C2.95183101 2.95183101 3.08663988 5.95511947 4 10 C6.97 10 9.94 10 13 10 C13 10.33 13 10.66 13 11 C4.05679956 11.61441835 4.05679956 11.61441835 0.3125 9.4375 C-1.53205679 6.01189454 -0.85466184 3.70353462 0 0 Z " fill="#4A343C" transform="translate(306,171)"/>
<path d="M0 0 C4.47959418 1.14185734 8.14522751 2.43015167 12 5 C11.67 5.99 11.34 6.98 11 8 C6.99698968 6.23867546 3.3971023 3.73867517 0 1 C0 0.67 0 0.34 0 0 Z " fill="#664A55" transform="translate(347,431)"/>
<path d="M0 0 C0.99 0 1.98 0 3 0 C2.745504 1.48206495 2.47088238 2.96068615 2.1875 4.4375 C2.03667969 5.26121094 1.88585937 6.08492188 1.73046875 6.93359375 C1.36888672 7.95646484 1.36888672 7.95646484 1 9 C0.01 9.33 -0.98 9.66 -2 10 C-2.33 10.66 -2.66 11.32 -3 12 C-2.68950274 10.56206608 -2.3765224 9.1246682 -2.0625 7.6875 C-1.88847656 6.88699219 -1.71445313 6.08648437 -1.53515625 5.26171875 C-1 3 -1 3 0 0 Z " fill="#70565F" transform="translate(118,404)"/>
<path d="M0 0 C1.65 0.33 3.3 0.66 5 1 C4.319375 1.474375 3.63875 1.94875 2.9375 2.4375 C0.66211786 5.44687638 0.82395666 6.14283302 1.25 9.75 C1.47906484 11.17020201 1.72251758 12.58845901 2 14 C-1 12 -1 12 -1.58203125 9.94140625 C-1.65808594 9.15636719 -1.73414063 8.37132812 -1.8125 7.5625 C-1.90144531 6.78003906 -1.99039062 5.99757813 -2.08203125 5.19140625 C-2 3 -2 3 0 0 Z " fill="#5E434C" transform="translate(348,289)"/>
<path d="M0 0 C0.33 0.66 0.66 1.32 1 2 C2.65 2 4.3 2 6 2 C1.375 6.875 1.375 6.875 -2 8 C-1.125 1.125 -1.125 1.125 0 0 Z " fill="#70535D" transform="translate(387,257)"/>
<path d="M0 0 C1.4606285 2.64738916 2 3.89448334 2 7 C0.51448079 9.18052998 -1.24174197 11.02195971 -3 13 C-4 11 -4 11 -3.22265625 8.3984375 C-2.83980469 7.40070313 -2.45695313 6.40296875 -2.0625 5.375 C-1.68222656 4.37210938 -1.30195313 3.36921875 -0.91015625 2.3359375 C-0.60980469 1.56507813 -0.30945313 0.79421875 0 0 Z " fill="#674E58" transform="translate(204,140)"/>
<path d="M0 0 C0.99 0.33 1.98 0.66 3 1 C3.33 1.99 3.66 2.98 4 4 C5.175625 4.0928125 5.175625 4.0928125 6.375 4.1875 C7.674375 4.5896875 7.674375 4.5896875 9 5 C10.3125 7.5625 10.3125 7.5625 11 10 C5.91061189 8.40956621 2.12543357 5.2553049 -2 2 C-1.34 1.34 -0.68 0.68 0 0 Z " fill="#4D3A41" transform="translate(379,451)"/>
<path d="M0 0 C0.99 0.33 1.98 0.66 3 1 C-0.12621626 4.39417765 -2.56541027 6.6062718 -7 8 C-7 5 -7 5 -5 3 C-2 1 -2 1 0 0 Z " fill="#674D57" transform="translate(217,384)"/>
<path d="M0 0 C2.40672398 2.40672398 2.79132175 4.11378549 3.6875 7.375 C4.09548828 8.80972656 4.09548828 8.80972656 4.51171875 10.2734375 C4.9947433 12.97064661 4.9004538 14.44972144 4 17 C4 16.01 4 15.02 4 14 C3.34 14 2.68 14 2 14 C1.66179834 12.4176994 1.32964061 10.83410625 1 9.25 C0.814375 8.36828125 0.62875 7.4865625 0.4375 6.578125 C0 4 0 4 0 0 Z " fill="#4A343B" transform="translate(385,417)"/>
<path d="M0 0 C0.33 0.99 0.66 1.98 1 3 C2.29944744 4.69321939 3.62926214 6.36395804 5 8 C2 8 2 8 0 7 C0 6.34 0 5.68 0 5 C-1.2065625 4.566875 -1.2065625 4.566875 -2.4375 4.125 C-5 3 -5 3 -6 1 C-3.92446352 0.4465236 -2.15634036 0 0 0 Z " fill="#634951" transform="translate(334,417)"/>
<path d="M0 0 C3.25974274 1.73173833 3.78722382 4.72736552 5 8.0625 C1.4213696 6.41082443 -1.74820188 4.27963508 -5 2.0625 C-2 0.0625 -2 0.0625 0 0 Z " fill="#71525C" transform="translate(265,369.9375)"/>
<path d="M0 0 C1.093125 0.185625 2.18625 0.37125 3.3125 0.5625 C6.93624133 1.2578068 6.93624133 1.2578068 10 0 C10 1.98 10 3.96 10 6 C5.16743695 5.58578031 3.17320782 3.53586014 0 0 Z " fill="#7A5D69" transform="translate(125,273)"/>
<path d="M0 0 C1.60938465 2.41407698 2.65490738 4.34044437 3.6875 7 C3.95949219 7.680625 4.23148437 8.36125 4.51171875 9.0625 C5 11 5 11 4 14 C3.67 12.68 3.34 11.36 3 10 C2.01 10 1.02 10 0 10 C0 6.7 0 3.4 0 0 Z " fill="#5E484E" transform="translate(296,142)"/>
<path d="M0 0 C0.33 0 0.66 0 1 0 C1.04241723 2.33294775 1.04092937 4.66702567 1 7 C0.67 7.33 0.34 7.66 0 8 C-0.36760731 10.32817964 -0.70241581 12.6618385 -1 15 C-1.99 15.33 -2.98 15.66 -4 16 C-2.98408579 10.53135543 -1.92908943 5.23609987 0 0 Z " fill="#544148" transform="translate(151,297)"/>
<path d="M0 0 C1.38317955 3.84216542 0.9279297 7.07414359 0 11 C-2.0625 12.9375 -2.0625 12.9375 -4 14 C-3.00956295 9.16371695 -2.04301154 4.52381127 0 0 Z " fill="#513E45" transform="translate(198,157)"/>
<path d="M0 0 C0 0.66 0 1.32 0 2 C-1.75 3.5078125 -1.75 3.5078125 -4 5.125 C-4.7425 5.66382813 -5.485 6.20265625 -6.25 6.7578125 C-6.8275 7.16773438 -7.405 7.57765625 -8 8 C-8.66 7.67 -9.32 7.34 -10 7 C-7.45564849 2.16573213 -5.60644734 0 0 0 Z " fill="#614B54" transform="translate(385,265)"/>
<path d="M0 0 C1 3 1 3 1 7 C1.66 6.67 2.32 6.34 3 6 C2.5 7.9375 2.5 7.9375 1 10 C-1.69658452 10.68790422 -4.2017019 10.81946464 -7 11 C-6.37609375 10.93941406 -5.7521875 10.87882813 -5.109375 10.81640625 C-2.76632566 10.19151441 -2.76632566 10.19151441 -1.953125 7.71484375 C-1.60507813 6.34005859 -1.60507813 6.34005859 -1.25 4.9375 C-1.00765625 4.01839844 -0.7653125 3.09929687 -0.515625 2.15234375 C-0.34546875 1.44207031 -0.1753125 0.73179687 0 0 Z " fill="#4F3740" transform="translate(193,171)"/>
<path d="M0 0 C0.84062397 3.09773244 1.08935201 5.78332751 1 9 C0.01 9.33 -0.98 9.66 -2 10 C-2 10.99 -2 11.98 -2 13 C-1.34 13.33 -0.68 13.66 0 14 C-0.99 14 -1.98 14 -3 14 C-3.40652968 8.57960425 -2.03993514 4.92984325 0 0 Z " fill="#4D3A3F" transform="translate(103,453)"/>
<path d="M0 0 C3.375 -0.1875 3.375 -0.1875 7 0 C9 3 9 3 9 6 C5.06326356 4.68775452 2.77280706 3.08089673 0 0 Z M9 2 C11 3 11 3 11 3 Z " fill="#654C56" transform="translate(293,394)"/>
<path d="M0 0 C0.763125 0.20625 1.52625 0.4125 2.3125 0.625 C2.3125 1.285 2.3125 1.945 2.3125 2.625 C-0.6875 4.625 -0.6875 4.625 -2.8125 4.375 C-4.6875 3.625 -4.6875 3.625 -5.6875 1.625 C-2.6875 -0.375 -2.6875 -0.375 0 0 Z " fill="#815F6E" transform="translate(222.6875,380.375)"/>
<path d="M0 0 C1.1924859 2.3849718 0.979264 3.39568089 0.625 6 C0.53476563 6.70125 0.44453125 7.4025 0.3515625 8.125 C0 10 0 10 -1 12 C-1.66 12 -2.32 12 -3 12 C-2.49202991 7.6822542 -1.80317221 3.96697886 0 0 Z " fill="#614A51" transform="translate(144,321)"/>
<path d="M0 0 C2.44839588 3.67259383 4 6.54648201 4 11 C2.68 10.34 1.36 9.68 0 9 C0 6.03 0 3.06 0 0 Z " fill="#69525B" transform="translate(279,95)"/>
<path d="M0 0 C2.5654594 2.5654594 2.54046087 4.47686668 3 8 C2.01 8.495 2.01 8.495 1 9 C-0.98 7.68 -2.96 6.36 -5 5 C-3 4 -3 4 0 4 C0 2.68 0 1.36 0 0 Z " fill="#3E3338" transform="translate(398,459)"/>
<path d="M0 0 C3.76687864 0 4.91190305 0.23537317 8 2 C7.625 3.9375 7.625 3.9375 7 6 C6.01 6.495 6.01 6.495 5 7 C4.67 6.01 4.34 5.02 4 4 C2.70644173 2.62804426 1.37701298 1.28817344 0 0 Z " fill="#674B56" transform="translate(147,290)"/>
<path d="M0 0 C2.42130331 2.42130331 2.52840504 3.80111377 3.125 7.125 C3.29257812 8.03507812 3.46015625 8.94515625 3.6328125 9.8828125 C3.81457031 10.93082031 3.81457031 10.93082031 4 12 C3.34 11.67 2.68 11.34 2 11 C2 10.01 2 9.02 2 8 C1.01 7.67 0.02 7.34 -1 7 C-0.67 4.69 -0.34 2.38 0 0 Z " fill="#4E3C42" transform="translate(394,446)"/>
<path d="M0 0 C3.3125 0.125 3.3125 0.125 7 1 C8.9375 4.0625 8.9375 4.0625 10 7 C5.56541027 5.6062718 3.12621626 3.39417765 0 0 Z " fill="#4F3A43" transform="translate(315,409)"/>
<path d="M0 0 C1.1875 2.125 1.1875 2.125 2 4 C1.4225 3.690625 0.845 3.38125 0.25 3.0625 C-3.37094106 1.35261116 -5.12331765 0.70777255 -9 2 C-9 1.01 -9 0.02 -9 -1 C-3.375 -2.25 -3.375 -2.25 0 0 Z " fill="#503941" transform="translate(255,365)"/>
<path d="M0 0 C2 3 2 3 1.75 5.4375 C1.05282249 7.81952314 0.20252143 9.83546142 -1 12 C-1.66 12 -2.32 12 -3 12 C-2.01 8.04 -1.02 4.08 0 0 Z " fill="#69525A" transform="translate(140,333)"/>
<path d="M0 0 C1.5 1.25 1.5 1.25 3 3 C3 4.32 3 5.64 3 7 C-0.36591866 5.55746343 -2.51047079 3.66735273 -5 1 C-2.525 1.495 -2.525 1.495 0 2 C0 1.34 0 0.68 0 0 Z " fill="#664C55" transform="translate(122,266)"/>
<path d="M0 0 C2.08954032 4.17908064 2.16552619 4.80410573 1 9 C-0.32 9.33 -1.64 9.66 -3 10 C-2.01 6.7 -1.02 3.4 0 0 Z " fill="#674F59" transform="translate(243,31)"/>
<path d="M0 0 C1.37432457 3.81756824 0.67975039 7.07255329 0 11 C-0.99 11.33 -1.98 11.66 -3 12 C-2.69106068 10.3743193 -2.3777305 8.74947252 -2.0625 7.125 C-1.88847656 6.22007812 -1.71445313 5.31515625 -1.53515625 4.3828125 C-1 2 -1 2 0 0 Z " fill="#4F3B42" transform="translate(107,440)"/>
<path d="M0 0 C-2.64 1.65 -5.28 3.3 -8 5 C-8.33 3.68 -8.66 2.36 -9 1 C-5.19495213 -0.79682816 -4.29399165 -1.07349791 0 0 Z " fill="#5D464E" transform="translate(184,411)"/>
<path d="M0 0 C2 3 2 3 1.3125 6.5625 C0 10 0 10 -3 12 C-2.68950274 10.56206608 -2.3765224 9.1246682 -2.0625 7.6875 C-1.88847656 6.88699219 -1.71445313 6.08648437 -1.53515625 5.26171875 C-1 3 -1 3 0 0 Z " fill="#543D45" transform="translate(126,378)"/>
<path d="M0 0 C2.12038635 2.61514317 4.13091744 5.19637616 6 8 C2.18315774 6.44499019 -0.19195732 3.96404505 -3 1 C-2.01 0.67 -1.02 0.34 0 0 Z " fill="#4F3A41" transform="translate(87,240)"/>
<path d="M0 0 C0.99 0.33 1.98 0.66 3 1 C-2.14285714 6.57142857 -2.14285714 6.57142857 -6 7 C-5.67 6.01 -5.34 5.02 -5 4 C-4.01 4 -3.02 4 -2 4 C-1.34 2.68 -0.68 1.36 0 0 Z " fill="#654F57" transform="translate(133,442)"/>
<path d="M0 0 C-2.3125 2.0625 -2.3125 2.0625 -5 4 C-5.99 3.67 -6.98 3.34 -8 3 C-8 2.34 -8 1.68 -8 1 C-4.93251126 -0.86240388 -3.40254489 -1.2151946 0 0 Z " fill="#6A505A" transform="translate(464,205)"/>
<path d="M0 0 C1.32 0.33 2.64 0.66 4 1 C0.535 3.97 0.535 3.97 -3 7 C-3.66 6.67 -4.32 6.34 -5 6 C-4.67 5.01 -4.34 4.02 -4 3 C-3.01 3 -2.02 3 -1 3 C-0.67 2.01 -0.34 1.02 0 0 Z " fill="#4C3941" transform="translate(469,197)"/>
<path d="M0 0 C1.65 0 3.3 0 5 0 C2.11912454 2.40072955 -0.56404834 4.47291037 -4 6 C-4 5.01 -4 4.02 -4 3 C-3.01 3 -2.02 3 -1 3 C-0.67 2.01 -0.34 1.02 0 0 Z " fill="#644C55" transform="translate(188,404)"/>
<path d="M0 0 C0.66 0 1.32 0 2 0 C1.67 0.66 1.34 1.32 1 2 C0.67 1.34 0.34 0.68 0 0 Z M-1 2 C-0.34 2 0.32 2 1 2 C0.6875 5.375 0.6875 5.375 0 9 C-0.99 9.66 -1.98 10.32 -3 11 C-2.34 8.03 -1.68 5.06 -1 2 Z " fill="#A07E8C" transform="translate(233,63)"/>
<path d="M0 0 C2.14418558 3.21627837 2.67582137 5.19090105 3 9 C2.34 9.66 1.68 10.32 1 11 C1.33 9.35 1.66 7.7 2 6 C1.01 5.67 0.02 5.34 -1 5 C-0.67 3.35 -0.34 1.7 0 0 Z " fill="#675057" transform="translate(257,33)"/>
<path d="M0 0 C1.90318884 2.85478326 2.4619099 4.41941308 3.125 7.6875 C3.29257812 8.49574219 3.46015625 9.30398438 3.6328125 10.13671875 C3.75398438 10.75160156 3.87515625 11.36648438 4 12 C3.01 11.67 2.02 11.34 1 11 C0.67 7.37 0.34 3.74 0 0 Z " fill="#513A43" transform="translate(373,378)"/>
<path d="M0 0 C0.66 0.66 1.32 1.32 2 2 C1.625 5.125 1.625 5.125 1 8 C0.34 8 -0.32 8 -1 8 C-1.33 8.66 -1.66 9.32 -2 10 C-1.34 6.7 -0.68 3.4 0 0 Z " fill="#664953" transform="translate(136,345)"/>
<path d="M0 0 C0.99 0.66 1.98 1.32 3 2 C-2.875 7 -2.875 7 -4 7 C-4 5.35 -4 3.7 -4 2 C-3.01 2.33 -2.02 2.66 -1 3 C-0.67 2.01 -0.34 1.02 0 0 Z " fill="#644E55" transform="translate(444,216)"/>
<path d="M0 0 C1.10844919 3.32534757 0.84454356 5.62182575 0 9 C-0.99 9.33 -1.98 9.66 -3 10 C-2.39009109 6.44219804 -1.4216319 3.3171411 0 0 Z " fill="#523C44" transform="translate(228,73)"/>
<path d="M0 0 C0.33 0 0.66 0 1 0 C1 2.64 1 5.28 1 8 C0.34 8 -0.32 8 -1 8 C-1.33 8.66 -1.66 9.32 -2 10 C-1.125 2.25 -1.125 2.25 0 0 Z " fill="#443139" transform="translate(114,417)"/>
<path d="M0 0 C2.64 0.66 5.28 1.32 8 2 C8 2.99 8 3.98 8 5 C4.62496331 3.8141763 2.35277269 2.72426311 0 0 Z " fill="#4C393F" transform="translate(339,426)"/>
<path d="M0 0 C1.65 0 3.3 0 5 0 C2.51047079 2.66735273 0.36591866 4.55746343 -3 6 C-3 5.01 -3 4.02 -3 3 C-2.01 3 -1.02 3 0 3 C0 2.01 0 1.02 0 0 Z " fill="#5C444E" transform="translate(238,369)"/>
<path d="M0 0 C2.875 0.1875 2.875 0.1875 6 1 C7.375 3.5625 7.375 3.5625 8 6 C4.08597051 4.73058503 2.20927127 3.48832306 0 0 Z " fill="#452E36" transform="translate(107,259)"/>
<path d="M0 0 C2.31 0.66 4.62 1.32 7 2 C7.33 3.32 7.66 4.64 8 6 C5.525 5.01 5.525 5.01 3 4 C3 3.34 3 2.68 3 2 C2.01 1.67 1.02 1.34 0 1 C0 0.67 0 0.34 0 0 Z " fill="#4E3840" transform="translate(62,224)"/>
<path d="M0 0 C1.10844919 3.32534757 0.84454356 5.62182575 0 9 C-0.99 9.33 -1.98 9.66 -3 10 C-2.21302675 6.58978257 -1.12880057 3.31114834 0 0 Z " fill="#48343D" transform="translate(247,20)"/>
</svg>
